<svg width="167" height="39" viewBox="0 0 167 39" xmlns="http://www.w3.org/2000/svg" xmlns:xlink="http://www.w3.org/1999/xlink"><title>apv-logo</title><defs><path d="M9.939.102c-2.54 0-3.978 1.213-5.006 3.757h-.075V1.015C4.8.726 4.532.509 4.208.498H.804C.43.498.13.762.097 1.1L.1 19.7c0 .351.291.638.66.66H4.42c.393 0 .71-.293.72-.666V9.686c0-1.252.068-2.386.579-3.52.413-.901 1.237-1.487 2.128-1.487 2.538 0 2.297 2.972 2.297 5.007v10.092c.04.317.316.562.656.582h3.679c.363 0 .665-.253.704-.582V8.08c0-1.799 0-4.301-.96-5.784C13.193.689 11.585.102 9.939.102z" id="a"/><path d="M.07.649a.779.779 0 0 0 .269.45c8.21 7.359 19.055 11.781 31.1 11.781 8.594 0 18.575-2.683 25.46-7.725 1.137-.839.163-2.088-1-1.6C48.18 6.807 39.795 8.38 32.162 8.38 20.852 8.38 9.9 5.298 1.047.184.544-.106.127.122.069.474V.65z" id="c"/><path d="M.086 2.562c.028.192.224.322.567.282 2.216-.264 7.156-.849 8.037.268.88 1.116-.979 5.714-1.809 7.763-.25.617.288.872.854.398 3.695-3.053 4.648-9.457 3.89-10.38C10.878-.023 4.423-.816.483 1.924c-.245.171-.374.367-.397.534v.104z" id="e"/><path d="M13.39.055H1.378a.658.658 0 0 0-.68.673v2.66c.003.4.31.67.694.67h6.275L.461 14.326c-.44.652-.45 1.394-.45 1.824v2.698c0 .323.291.677.627.677a.492.492 0 0 0 .23-.058c1.998-1.055 4.19-1.544 6.342-1.543 2.252 0 4.46.535 6.355 1.517a.543.543 0 0 0 .257.067c.345 0 .623-.356.623-.675v-2.837c-.036-.384-.164-.772-.64-1.038-1.962-1.093-4.228-1.466-6.403-1.466-.15 0-.299.002-.448.005l6.224-8.816c.577-.791.905-1.292.905-1.672V.724c0-.397-.307-.669-.694-.669z" id="g"/><path d="M19.592.102c-2.159 0-4.18 1.098-5.074 3.442C13.488 1.2 12.05.102 9.753.102 7.489.102 5.808 1.2 4.916 3.544h-.067v-2.43c-.024-.334-.313-.6-.666-.616H.76c-.393 0-.709.293-.709.664v18.59a.68.68 0 0 0 .653.608H4.38c.39 0 .71-.293.71-.666V9.841c0-2.15-.105-5.122 2.536-5.122 2.608 0 2.261 3.052 2.261 5.122L9.89 19.7c0 .351.293.638.661.66h3.667c.392 0 .713-.293.713-.666l-.005-9.853c0-1.056-.031-2.62.347-3.56.378-.937 1.3-1.523 2.194-1.523 1.064 0 1.885.351 2.158 1.603.172.745.102 2.697.102 3.48V19.7c0 .351.294.638.663.66h3.666c.392 0 .711-.293.711-.666V7.965c0-1.999.242-4.264-.923-5.83C22.812.727 21.132.103 19.592.103z" id="i"/><path d="M8.906.03C5.413.03 1.519 1.32.702 5.587c-.092.451.244.692.548.754l3.552.386c.334-.02.577-.344.64-.668.304-1.472 1.55-2.179 2.947-2.179.758 0 1.616.274 2.062.941.513.747.447 1.767.447 2.632v.47c-2.131.238-4.911.396-6.9 1.257-2.302.983-3.913 2.984-3.913 5.932 0 3.77 2.401 5.657 5.494 5.657 2.606 0 4.034-.612 6.045-2.64.668.952.886 1.418 2.107 2.418a.808.808 0 0 0 .38.096.719.719 0 0 0 .485-.184l.007.008c.738-.637 2.064-1.79 2.814-2.407.303-.243.25-.63.012-.964-.67-.913-1.384-1.663-1.384-3.362V8.082c0-2.397.173-4.598-1.615-6.244C13.026.5 10.692.03 8.906.03zM7.668 17.114c-1.403 0-2.228-1.06-2.228-2.631 0-3.093 2.798-3.65 5.458-3.65v.78c0 1.42.032 2.596-.69 3.855-.583 1.018-1.51 1.646-2.54 1.646z" id="k"/><path d="M8.84.03C5.343.03 1.444 1.32.63 5.587c-.088.451.251.692.55.754l3.554.386c.333-.02.574-.344.638-.668.304-1.472 1.549-2.179 2.95-2.179.753 0 1.612.274 2.059.941.513.747.446 1.767.446 2.632v.47c-2.129.238-4.908.396-6.9 1.257-2.301.983-3.915 2.984-3.915 5.932 0 3.77 2.404 5.657 5.495 5.657 2.609 0 4.036-.612 6.048-2.64.667.952.883 1.418 2.101 2.418.118.063.25.096.383.096a.717.717 0 0 0 .486-.184l.01.008c.733-.637 2.063-1.79 2.814-2.407.297-.243.247-.63.012-.964-.673-.913-1.386-1.663-1.386-3.362V8.082c0-2.397.171-4.598-1.613-6.244C12.955.5 10.623.03 8.84.03zM7.6 17.114c-1.406 0-2.232-1.06-2.232-2.631 0-3.093 2.803-3.65 5.46-3.65v.78c0 1.42.035 2.596-.687 3.855-.585 1.018-1.51 1.646-2.542 1.646z" id="m"/><path d="M21.03 10.4c0 5.726-4.689 10.37-10.473 10.37C4.774 20.77.086 16.125.086 10.4.086 4.673 4.774.03 10.557.03 16.341.03 21.03 4.673 21.03 10.4z" id="o"/><path d="M.014 7.967V.4c0-.29.307-.48.574-.357l8.088 3.723c.306.141.309.568.004.713L.593 8.322a.402.402 0 0 1-.579-.355z" id="q"/><path d="M0 11.188V.79C0 .537.206.333.455.333h1.01c.253 0 .507.199.57.445l.078.312c.32-.305.708-.547 1.161-.726A3.747 3.747 0 0 1 4.66.096c1.035 0 1.855.374 2.458 1.12.603.747.904 1.757.904 3.03 0 .83-.138 1.572-.416 2.224-.277.652-.678 1.165-1.2 1.539-.524.373-1.127.56-1.81.56-.438 0-.854-.069-1.249-.205a3.02 3.02 0 0 1-1.009-.568v3.393a.458.458 0 0 1-.456.456H.456A.457.457 0 0 1 0 11.188zm3.904-9.373c-.562 0-1.091.144-1.588.432v4.2a3.01 3.01 0 0 0 1.588.43c.605 0 1.05-.202 1.337-.606.286-.405.43-1.043.43-1.916 0-.884-.141-1.528-.422-1.933-.281-.404-.73-.607-1.345-.607zm5.33 6.05V.783c0-.25.203-.453.45-.453h1.001c.25 0 .499.197.558.443l.179.745c.423-.458.822-.784 1.198-.976.375-.193.774-.29 1.197-.29.201 0 .302.016.302.016a.374.374 0 0 1 .332.361v1.45c0 .183-.155.309-.338.286 0 0-.285-.05-.645-.05a5.07 5.07 0 0 0-1.92.36v5.19c0 .25-.205.453-.451.453H9.685a.454.454 0 0 1-.452-.453zm20.762.453a.454.454 0 0 1-.452-.452V2.91c0-.709-.322-1.063-.967-1.063-.571 0-1.148.135-1.73.406v5.61c0 .251-.205.455-.451.455h-1.412a.454.454 0 0 1-.452-.452V2.91c0-.709-.322-1.063-.967-1.063a3.91 3.91 0 0 0-1.745.422v5.594a.455.455 0 0 1-.452.455h-1.412a.454.454 0 0 1-.452-.453V.783c0-.25.204-.453.451-.453h1.001c.25 0 .505.198.57.437l.088.33c.56-.365 1.065-.623 1.515-.774.449-.151.912-.227 1.387-.227.952 0 1.623.333 2.015 1 .539-.354 1.046-.61 1.522-.766a4.698 4.698 0 0 1 1.475-.234c.74 0 1.314.203 1.721.61.407.406.61.974.61 1.703v5.455c0 .25-.205.454-.451.454h-1.412z" id="s"/><path d="M.487 8.112a.455.455 0 0 1-.458-.454V.549C.029.3.234.095.487.095h1.402c.253 0 .458.202.458.454v7.109c0 .25-.206.454-.458.454H.487z" id="u"/><path d="M2.201 4.771c.043.686.26 1.183.65 1.49.39.306 1.003.46 1.838.46.727 0 2.09-.299 2.09-.299.247-.05.447.113.447.363v.604c0 .25-.19.528-.431.616 0 0-.401.171-.927.275a8.398 8.398 0 0 1-1.634.156c-1.377 0-2.426-.359-3.147-1.076C.367 6.643.006 5.593.006 4.21c0-1.33.357-2.365 1.073-3.103S2.786 0 4.055 0c1.073 0 1.9.283 2.48.85.58.566.87 1.374.87 2.424 0 .23-.016.489-.049.78-.032.291-.036.265-.036.265a.563.563 0 0 1-.538.452H2.2zm1.773-3.196c-.532 0-.952.153-1.26.46-.31.307-.486.75-.53 1.333h3.188v-.265c0-1.019-.466-1.528-1.398-1.528z" id="v"/><path d="M3.493 8.112a.72.72 0 0 1-.624-.425L.08.52C-.013.286.117.095.371.095H1.95c.253 0 .515.195.586.439l1.625 5.523L5.817.529a.646.646 0 0 1 .587-.434H7.92c.252 0 .383.19.292.426L5.436 7.687a.72.72 0 0 1-.623.425h-1.32z" id="x"/><path d="M.487 8.112a.455.455 0 0 1-.458-.454V.549C.029.3.234.095.487.095h1.402c.253 0 .458.202.458.454v7.109c0 .25-.206.454-.458.454H.487z" id="z"/><path d="M1.363 2.264c-.403 0-.727-.101-.971-.304-.244-.204-.366-.48-.366-.828S.148.508.392.305C.636.102.96 0 1.362 0c.404 0 .728.102.972.305.243.203.366.479.366.827 0 .349-.123.624-.366.828-.244.203-.568.304-.971.304z" id="B"/><path d="M.487 8.112a.455.455 0 0 1-.458-.454V.549C.029.3.234.095.487.095h1.402c.253 0 .458.202.458.454v7.109c0 .25-.206.454-.458.454H.487z" id="D"/><path d="M1.363 2.264c-.403 0-.727-.101-.971-.304-.244-.204-.366-.48-.366-.828S.148.508.392.305C.636.102.96 0 1.362 0c.404 0 .728.102.972.305.243.203.366.479.366.827 0 .349-.123.624-.366.828-.244.203-.568.304-.971.304z" id="F"/><path d="M6.546 11.701a.628.628 0 0 1-.577-.435l-.075-.27c-.67.585-1.465.878-2.384.878-.682 0-1.282-.165-1.801-.494-.52-.33-.922-.808-1.209-1.435C.214 9.317.07 8.58.07 7.733c0-1.296.32-2.334.958-3.113.638-.78 1.481-1.169 2.53-1.169.855 0 1.595.236 2.223.706V.545c0-.248.202-.45.456-.45h1.455c.253 0 .457.201.457.451V11.25c0 .25-.205.451-.457.451H6.546zM4.288 10.15c.52 0 1.017-.147 1.493-.44V5.57c-.465-.262-1-.392-1.606-.392-.574 0-1 .206-1.282.62-.281.412-.422 1.037-.422 1.874 0 .836.15 1.458.446 1.866.298.408.755.612 1.371.612z" id="H"/><path d="M2.201 4.771c.043.686.26 1.183.65 1.49.39.306 1.003.46 1.838.46.727 0 2.09-.299 2.09-.299.247-.05.447.113.447.363v.604c0 .25-.19.528-.431.616 0 0-.401.171-.927.275a8.398 8.398 0 0 1-1.634.156c-1.377 0-2.426-.359-3.147-1.076C.367 6.643.006 5.593.006 4.21c0-1.33.357-2.365 1.073-3.103S2.786 0 4.055 0c1.073 0 1.9.283 2.48.85.58.566.87 1.374.87 2.424 0 .23-.016.489-.049.78-.032.291-.036.265-.036.265a.563.563 0 0 1-.538.452H2.2zm1.773-3.196c-.532 0-.952.153-1.26.46-.31.307-.486.75-.53 1.333h3.188v-.265c0-1.019-.466-1.528-1.398-1.528z" id="J"/><path d="M4.072 8.436c-1.266 0-2.256-.372-2.97-1.115C.39 6.578.034 5.541.034 4.211c0-1.321.356-2.353 1.07-3.096C1.816.372 2.806 0 4.073 0c1.266 0 2.256.372 2.969 1.115.713.743 1.07 1.775 1.07 3.095 0 1.33-.357 2.368-1.07 3.111-.713.743-1.703 1.115-2.97 1.115zm0-1.747c1.118 0 1.677-.826 1.677-2.479 0-1.642-.559-2.464-1.677-2.464-1.117 0-1.676.822-1.676 2.464 0 1.653.559 2.48 1.676 2.48z" id="L"/></defs><g fill="none" fill-rule="evenodd"><g transform="translate(105.993 .108)"><mask id="b" fill="#fff"><use xlink:href="#a"/></mask><path fill="#FFF" mask="url(#b)" d="M.063 20.38h15.123V.096H.063z"/></g><g transform="translate(16.656 22.536)"><mask id="d" fill="#fff"><use xlink:href="#c"/></mask><path fill="#FFF" mask="url(#d)" d="M.07 12.892h57.365V.022H.07z"/></g><g transform="translate(67.705 21.35)"><mask id="f" fill="#fff"><use xlink:href="#e"/></mask><path fill="#FFF" mask="url(#f)" d="M.086 11.525h11.8V.035H.085z"/></g><g transform="translate(67.814 .54)"><mask id="h" fill="#fff"><use xlink:href="#g"/></mask><path fill="#FFF" mask="url(#h)" d="M-.023 19.538h14.499V.047H-.023z"/></g><g transform="translate(20.225 .108)"><mask id="j" fill="#fff"><use xlink:href="#i"/></mask><path fill="#FFF" mask="url(#j)" d="M.03 20.38h24.776V.096H.03z"/></g><g><mask id="l" fill="#fff"><use xlink:href="#k"/></mask><path fill="#FFF" mask="url(#l)" d="M.051 20.8H17.63V0H.05z"/></g><g transform="translate(48.13)"><mask id="n" fill="#fff"><use xlink:href="#m"/></mask><path fill="#FFF" mask="url(#n)" d="M.012 20.8h17.577V0H.012z"/></g><g transform="translate(82.74)"><mask id="p" fill="#fff"><use xlink:href="#o"/></mask><path fill="#81AB3F" mask="url(#p)" d="M.069 20.8h20.97V0H.068z"/></g><g transform="translate(89.986 6.254)"><mask id="r" fill="#fff"><use xlink:href="#q"/></mask><path fill="#FFF" mask="url(#r)" d="M-.015 8.37h8.929V-.01h-8.93z"/></g><g transform="translate(84.361 26.957)"><mask id="t" fill="#fff"><use xlink:href="#s"/></mask><path fill="#FFF" mask="url(#t)" d="M-.029 11.86h40.616V-3.365H-.03z"/></g><g transform="translate(117.457 27.064)"><mask id="w" fill="#fff"><use xlink:href="#v"/></mask><path fill="#FFF" mask="url(#w)" d="M-.01 8.466h7.43V-.023H-.01z"/></g><g transform="translate(127.948 27.172)"><mask id="y" fill="#fff"><use xlink:href="#x"/></mask><path fill="#FFF" mask="url(#y)" d="M.017 8.142h8.236V.07H.017z"/></g><g transform="translate(137.033 27.172)"><mask id="A" fill="#fff"><use xlink:href="#z"/></mask><path fill="#FFF" mask="url(#A)" d="M-.003 8.142h2.354V.07H-.003z"/></g><g transform="translate(136.925 23.722)"><mask id="C" fill="#fff"><use xlink:href="#B"/></mask><path fill="#FFF" mask="url(#C)" d="M-.005 2.287h2.737v-2.31H-.005z"/></g><g transform="translate(99.936 27.172)"><mask id="E" fill="#fff"><use xlink:href="#D"/></mask><path fill="#FFF" mask="url(#E)" d="M-.003 8.142h2.354V.07H-.003z"/></g><g transform="translate(99.828 23.722)"><mask id="G" fill="#fff"><use xlink:href="#F"/></mask><path fill="#FFF" mask="url(#G)" d="M-.005 2.287h2.737v-2.31H-.005z"/></g><g transform="translate(140.602 23.614)"><mask id="I" fill="#fff"><use xlink:href="#H"/></mask><path fill="#FFF" mask="url(#I)" d="M.052 11.9H8.15V.068H.052z"/></g><g transform="translate(149.904 27.064)"><mask id="K" fill="#fff"><use xlink:href="#J"/></mask><path fill="#FFF" mask="url(#K)" d="M-.01 8.466h7.43V-.023H-.01z"/></g><g transform="translate(158.232 27.064)"><mask id="M" fill="#fff"><use xlink:href="#L"/></mask><path fill="#FFF" mask="url(#M)" d="M.03 8.466H8.13V-.023H.03z"/></g></g></svg>